<svg xmlns="http://www.w3.org/2000/svg" viewBox="0 0 850 210" width="850" height="210" font-family="'Brand Mono', 'JetBrains Mono', ui-monospace, SFMono-Regular, Menlo, Consolas, 'DejaVu Sans Mono', monospace" role="img" aria-label="Ricardo David Francisco, Data Platform Engineer, Lisbon, Portugal"><rect x="0.5" y="0.5" width="849" height="209" rx="14" fill="#0A0C0E" stroke="#232B30"/><text x="40" y="64" font-size="13" font-weight="700" letter-spacing="2" fill="#CDF546">DATA PLATFORM ENGINEER</text><text x="40" y="106" font-size="30" font-weight="700" fill="#EDF1F2">Ricardo David Francisco</text><text x="40" y="142" font-size="14" fill="#8B969C">Databricks · Spark · Delta Lake · Terraform</text><text x="40" y="166" font-size="14" fill="#8B969C">Lisbon, Portugal</text><rect x="506" y="37" width="10" height="10" rx="2" fill="#232B30" opacity=".6"/><rect x="527" y="37" width="10" height="10" rx="2" fill="#232B30" opacity=".6"/><rect x="548" y="37" width="10" height="10" rx="2" fill="#232B30" opacity=".6"/><rect x="569" y="37" width="10" height="10" rx="2" fill="#232B30" opacity=".6"/><rect x="590" y="37" width="10" height="10" rx="2" fill="#232B30" opacity=".6"/><rect x="611" y="37" width="10" height="10" rx="2" fill="#232B30" opacity=".6"/><rect x="632" y="37" width="10" height="10" rx="2" fill="#232B30" opacity=".6"/><rect x="653" y="37" width="10" height="10" rx="2" fill="#232B30" opacity=".6"/><rect x="674" y="37" width="10" height="10" rx="2" fill="#232B30" opacity=".6"/><rect x="695" y="37" width="10" height="10" rx="2" fill="#fab73c" opacity="0.91"/><rect x="716" y="37" width="10" height="10" rx="2" fill="#fba63d" opacity="0.96"/><rect x="737" y="37" width="10" height="10" rx="2" fill="#fc8842" opacity="0.99"/><rect x="758" y="37" width="10" height="10" rx="2" fill="#fd6947" opacity="1.00"/><rect x="779" y="37" width="10" height="10" rx="2" fill="#fe4a4c" opacity="0.99"/><rect x="800" y="37" width="10" height="10" rx="2" fill="#d34689" opacity="0.95"/><rect x="506" y="58" width="10" height="10" rx="2" fill="#232B30" opacity=".6"/><rect x="527" y="58" width="10" height="10" rx="2" fill="#232B30" opacity=".6"/><rect x="548" y="58" width="10" height="10" rx="2" fill="#232B30" opacity=".6"/><rect x="569" y="58" width="10" height="10" rx="2" fill="#232B30" opacity=".6"/><rect x="590" y="58" width="10" height="10" rx="2" fill="#232B30" opacity=".6"/><rect x="611" y="58" width="10" height="10" rx="2" fill="#232B30" opacity=".6"/><rect x="632" y="58" width="10" height="10" rx="2" fill="#232B30" opacity=".6"/><rect x="653" y="58" width="10" height="10" rx="2" fill="#232B30" opacity=".6"/><rect x="674" y="58" width="10" height="10" rx="2" fill="#f8c23d" opacity="0.92"/><rect x="695" y="58" width="10" height="10" rx="2" fill="#fab73c" opacity="0.97"/><rect x="716" y="58" width="10" height="10" rx="2" fill="#fba63d" opacity="0.99"/><rect x="737" y="58" width="10" height="10" rx="2" fill="#fc8842" opacity="1.00"/><rect x="758" y="58" width="10" height="10" rx="2" fill="#fd6947" opacity="0.99"/><rect x="779" y="58" width="10" height="10" rx="2" fill="#fe4a4c" opacity="0.95"/><rect x="800" y="58" width="10" height="10" rx="2" fill="#d34689" opacity="0.90"/><rect x="506" y="79" width="10" height="10" rx="2" fill="#232B30" opacity=".6"/><rect x="527" y="79" width="10" height="10" rx="2" fill="#232B30" opacity=".6"/><rect x="548" y="79" width="10" height="10" rx="2" fill="#232B30" opacity=".6"/><rect x="569" y="79" width="10" height="10" rx="2" fill="#232B30" opacity=".6"/><rect x="590" y="79" width="10" height="10" rx="2" fill="#232B30" opacity=".6"/><rect x="611" y="79" width="10" height="10" rx="2" fill="#232B30" opacity=".6"/><rect x="632" y="79" width="10" height="10" rx="2" fill="#232B30" opacity=".6"/><rect x="653" y="79" width="10" height="10" rx="2" fill="#f7ce3d" opacity="0.92"/><rect x="674" y="79" width="10" height="10" rx="2" fill="#f8c23d" opacity="0.97"/><rect x="695" y="79" width="10" height="10" rx="2" fill="#fab73c" opacity="0.99"/><rect x="716" y="79" width="10" height="10" rx="2" fill="#fba63d" opacity="1.00"/><rect x="737" y="79" width="10" height="10" rx="2" fill="#fc8842" opacity="0.98"/><rect x="758" y="79" width="10" height="10" rx="2" fill="#fd6947" opacity="0.95"/><rect x="779" y="79" width="10" height="10" rx="2" fill="#fe4a4c" opacity="0.89"/><rect x="800" y="79" width="10" height="10" rx="2" fill="#232B30" opacity=".6"/><rect x="506" y="100" width="10" height="10" rx="2" fill="#232B30" opacity=".6"/><rect x="527" y="100" width="10" height="10" rx="2" fill="#232B30" opacity=".6"/><rect x="548" y="100" width="10" height="10" rx="2" fill="#232B30" opacity=".6"/><rect x="569" y="100" width="10" height="10" rx="2" fill="#232B30" opacity=".6"/><rect x="590" y="100" width="10" height="10" rx="2" fill="#232B30" opacity=".6"/><rect x="611" y="100" width="10" height="10" rx="2" fill="#232B30" opacity=".6"/><rect x="632" y="100" width="10" height="10" rx="2" fill="#f5d93e" opacity="0.93"/><rect x="653" y="100" width="10" height="10" rx="2" fill="#f7ce3d" opacity="0.97"/><rect x="674" y="100" width="10" height="10" rx="2" fill="#f8c23d" opacity="1.00"/><rect x="695" y="100" width="10" height="10" rx="2" fill="#fab73c" opacity="1.00"/><rect x="716" y="100" width="10" height="10" rx="2" fill="#fba63d" opacity="0.98"/><rect x="737" y="100" width="10" height="10" rx="2" fill="#fc8842" opacity="0.94"/><rect x="758" y="100" width="10" height="10" rx="2" fill="#fd6947" opacity="0.89"/><rect x="779" y="100" width="10" height="10" rx="2" fill="#232B30" opacity=".6"/><rect x="800" y="100" width="10" height="10" rx="2" fill="#232B30" opacity=".6"/><rect x="506" y="121" width="10" height="10" rx="2" fill="#232B30" opacity=".6"/><rect x="527" y="121" width="10" height="10" rx="2" fill="#232B30" opacity=".6"/><rect x="548" y="121" width="10" height="10" rx="2" fill="#232B30" opacity=".6"/><rect x="569" y="121" width="10" height="10" rx="2" fill="#232B30" opacity=".6"/><rect x="590" y="121" width="10" height="10" rx="2" fill="#232B30" opacity=".6"/><rect x="611" y="121" width="10" height="10" rx="2" fill="#f2e33e" opacity="0.93"/><rect x="632" y="121" width="10" height="10" rx="2" fill="#f5d93e" opacity="0.97"/><rect x="653" y="121" width="10" height="10" rx="2" fill="#f7ce3d" opacity="1.00"/><rect x="674" y="121" width="10" height="10" rx="2" fill="#f8c23d" opacity="1.00"/><rect x="695" y="121" width="10" height="10" rx="2" fill="#fab73c" opacity="0.98"/><rect x="716" y="121" width="10" height="10" rx="2" fill="#fba63d" opacity="0.94"/><rect x="737" y="121" width="10" height="10" rx="2" fill="#232B30" opacity=".6"/><rect x="758" y="121" width="10" height="10" rx="2" fill="#232B30" opacity=".6"/><rect x="779" y="121" width="10" height="10" rx="2" fill="#232B30" opacity=".6"/><rect x="800" y="121" width="10" height="10" rx="2" fill="#232B30" opacity=".6"/><rect x="506" y="142" width="10" height="10" rx="2" fill="#232B30" opacity=".6"/><rect x="527" y="142" width="10" height="10" rx="2" fill="#232B30" opacity=".6"/><rect x="548" y="142" width="10" height="10" rx="2" fill="#232B30" opacity=".6"/><rect x="569" y="142" width="10" height="10" rx="2" fill="#232B30" opacity=".6"/><rect x="590" y="142" width="10" height="10" rx="2" fill="#ebe740" opacity="0.94"/><rect x="611" y="142" width="10" height="10" rx="2" fill="#f2e33e" opacity="0.98"/><rect x="632" y="142" width="10" height="10" rx="2" fill="#f5d93e" opacity="1.00"/><rect x="653" y="142" width="10" height="10" rx="2" fill="#f7ce3d" opacity="1.00"/><rect x="674" y="142" width="10" height="10" rx="2" fill="#f8c23d" opacity="0.97"/><rect x="695" y="142" width="10" height="10" rx="2" fill="#fab73c" opacity="0.93"/><rect x="716" y="142" width="10" height="10" rx="2" fill="#232B30" opacity=".6"/><rect x="737" y="142" width="10" height="10" rx="2" fill="#232B30" opacity=".6"/><rect x="758" y="142" width="10" height="10" rx="2" fill="#232B30" opacity=".6"/><rect x="779" y="142" width="10" height="10" rx="2" fill="#232B30" opacity=".6"/><rect x="800" y="142" width="10" height="10" rx="2" fill="#232B30" opacity=".6"/><rect x="506" y="163" width="10" height="10" rx="2" fill="#232B30" opacity=".6"/><rect x="527" y="163" width="10" height="10" rx="2" fill="#232B30" opacity=".6"/><rect x="548" y="163" width="10" height="10" rx="2" fill="#dcee43" opacity="0.89"/><rect x="569" y="163" width="10" height="10" rx="2" fill="#e3ea41" opacity="0.94"/><rect x="590" y="163" width="10" height="10" rx="2" fill="#ebe740" opacity="0.98"/><rect x="611" y="163" width="10" height="10" rx="2" fill="#f2e33e" opacity="1.00"/><rect x="632" y="163" width="10" height="10" rx="2" fill="#f5d93e" opacity="1.00"/><rect x="653" y="163" width="10" height="10" rx="2" fill="#f7ce3d" opacity="0.97"/><rect x="674" y="163" width="10" height="10" rx="2" fill="#f8c23d" opacity="0.93"/><rect x="695" y="163" width="10" height="10" rx="2" fill="#232B30" opacity=".6"/><rect x="716" y="163" width="10" height="10" rx="2" fill="#232B30" opacity=".6"/><rect x="737" y="163" width="10" height="10" rx="2" fill="#232B30" opacity=".6"/><rect x="758" y="163" width="10" height="10" rx="2" fill="#232B30" opacity=".6"/><rect x="779" y="163" width="10" height="10" rx="2" fill="#232B30" opacity=".6"/><rect x="800" y="163" width="10" height="10" rx="2" fill="#232B30" opacity=".6"/></svg>
